<svg xmlns="http://www.w3.org/2000/svg" width="65.062" height="78" viewBox="0 0 65.062 78">
  <g id="Group_466" data-name="Group 466" transform="translate(-479 -198)">
    <path id="Path_263" data-name="Path 263" d="M564.343,233.522l-.052-.113a20.383,20.383,0,0,1-1.854-8.58l0-6.21a19.913,19.913,0,0,0-13.752-18.934,19.4,19.4,0,0,0-15.756,19.052l0,6.05a19.876,19.876,0,0,1-1.806,8.361c-.017.037-.034.073-.051.109a9.682,9.682,0,0,0,7.415,13.614,13.957,13.957,0,0,0,1.9.129h18.367a9.966,9.966,0,0,0,5.6-13.477Zm0,0" transform="translate(-40.789 -1.342)" fill="#e7a561"/>
    <path id="Path_264" data-name="Path 264" d="M548.107,295.5h3.779v8.892h-3.779a4.446,4.446,0,1,1,0-8.892Zm0,0" transform="translate(-51.526 -77.692)" fill="#ffcbbe"/>
    <path id="Path_265" data-name="Path 265" d="M640.01,231.914c-.017-.037-.033-.073-.051-.109a19.872,19.872,0,0,1-1.806-8.361l0-6.05a19.405,19.405,0,0,0-24.593-18.688,19.4,19.4,0,0,1,14.194,18.688l0,6.05a19.878,19.878,0,0,0,1.807,8.361l.05.109a9.682,9.682,0,0,1-7.416,13.614,13.973,13.973,0,0,1-1.9.129h10.4a13.988,13.988,0,0,0,1.9-.129,9.682,9.682,0,0,0,7.416-13.614Zm0,0" transform="translate(-107.226 0)" fill="#e49542"/>
    <path id="Path_266" data-name="Path 266" d="M592.554,384.222a14.893,14.893,0,0,0,11.436-5.338,1.9,1.9,0,0,0-1.1-3.08,3.8,3.8,0,0,1-3.078-3.726V361.656H585.3v10.423a3.794,3.794,0,0,1-3.078,3.726,1.9,1.9,0,0,0-1.1,3.08,14.893,14.893,0,0,0,11.436,5.338Zm0,0" transform="translate(-81.024 -130.413)" fill="#ffcbbe"/>
    <path id="Path_267" data-name="Path 267" d="M569.718,441.724v18.938L571,462.033H596.64l1.286-1.371V441.724a24.148,24.148,0,0,0-.325-3.929,23.208,23.208,0,0,0-5.734-3.1,11.76,11.76,0,0,1-18.528-3.237l-1.455.28a24.157,24.157,0,0,0-2.166,9.991Zm0,0" transform="translate(-72.291 -186.033)" fill="#f9f6f9"/>
    <path id="Path_268" data-name="Path 268" d="M678.152,431.621l-.078-.164a11.829,11.829,0,0,1-3.233,3.921,22.287,22.287,0,0,1,5.3,2.707,23.289,23.289,0,0,0-1.984-6.464Zm0,0" transform="translate(-156.06 -186.036)" fill="#dddaec"/>
    <path id="Path_269" data-name="Path 269" d="M479,454.094V458.2a3.717,3.717,0,0,0,3.717,3.718H488.5v-.586h2.354v.586h7.857V441.786a23.308,23.308,0,0,1,2.486-10.474l-4.023.775A22.409,22.409,0,0,0,479,454.094Zm0,0" transform="translate(0 -185.92)" fill="#9bc4f9"/>
    <path id="Path_270" data-name="Path 270" d="M699.75,457.738a23.267,23.267,0,0,1,.509,4.833v20.408h7.856v-.586h2.354v.586h.2v-5.505a23.292,23.292,0,0,0-10.919-19.736Zm0,0" transform="translate(-175.91 -206.979)" fill="#9bc4f9"/>
    <path id="Path_271" data-name="Path 271" d="M694.629,432.2l-.083-.016-3.789-.729.078.164a23.335,23.335,0,0,1,1.985,6.464,22.408,22.408,0,0,1,9.654,18.427v4.937h.829v.586h5.785a3.718,3.718,0,0,0,3.718-3.718v-4.108A22.412,22.412,0,0,0,694.629,432.2Zm0,0" transform="translate(-168.744 -186.036)" fill="#7fb2f9"/>
    <path id="Path_272" data-name="Path 272" d="M528.138,549.628V542.6a1.177,1.177,0,1,0-2.353,0v7.025c0,.013,0,.026,0,.04h2.35c0-.013,0-.026,0-.04Zm0,0" transform="translate(-37.282 -273.668)" fill="#61a2f9"/>
    <path id="Path_273" data-name="Path 273" d="M742.11,541.426a1.177,1.177,0,0,0-1.177,1.177v7.065h2.354V542.6a1.177,1.177,0,0,0-1.177-1.178Zm0,0" transform="translate(-208.728 -273.668)" fill="#61a2f9"/>
    <path id="Path_274" data-name="Path 274" d="M695.445,300.022H700.2a3.656,3.656,0,0,0,3.656-3.655V291.8a3.655,3.655,0,0,0-3.656-3.655h-4.758Zm0,0" transform="translate(-172.48 -71.831)" fill="#365e7d"/>
    <path id="Path_275" data-name="Path 275" d="M599.023,278.871a20.48,20.48,0,0,1-1.607-8.026l0-6.211a19.868,19.868,0,0,0-1.208-6.842,6.45,6.45,0,0,0-6.726,1.56,7.424,7.424,0,0,1-5.287,2.213h-5.806a4.305,4.305,0,0,0-4.305,4.305v7.1a13.217,13.217,0,0,0,24.942,5.9Zm0,0" transform="translate(-75.768 -47.358)" fill="#ffddce"/>
    <path id="Path_276" data-name="Path 276" d="M682.122,264.08a6.444,6.444,0,0,0-5.634-6.392,19.332,19.332,0,0,1,1.412,7.27l0,6.05a19.884,19.884,0,0,0,1.807,8.361l.051.109c.1.213.185.426.265.64a13.161,13.161,0,0,0,2.1-6.943Zm0,0" transform="translate(-157.373 -47.564)" fill="#ffcbbe"/>
    <path id="Path_277" data-name="Path 277" d="M684.942,346.07H683.67v3.508a1.682,1.682,0,0,1-1.68,1.681h-4.554a1.143,1.143,0,0,0,0,2.285h4.554a3.97,3.97,0,0,0,3.965-3.966v-3.651a3.652,3.652,0,0,1-1.013.144Zm0,0" transform="translate(-157.218 -117.879)" fill="#f9f6f9"/>
    <path id="Path_278" data-name="Path 278" d="M653.025,370.587h-3.571a2.467,2.467,0,0,1,0-4.935h3.571a2.467,2.467,0,0,1,0,4.935Zm0,0" transform="translate(-133.865 -133.598)" fill="#475959"/>
  </g>
</svg>
